  0
SECTION
  2
HEADER
  9
$ACADVER
  1
AC1014
  9
$HANDSEED
  5
FFFF
  9
$MEASUREMENT
 70
     1
  0
ENDSEC
  0
SECTION
  2
TABLES
  0
TABLE
  2
VPORT
  5
8
330
0
100
AcDbSymbolTable
 70
     4
  0
VPORT
  5
2E
330
8
100
AcDbSymbolTableRecord
100
AcDbViewportTableRecord
  2
*ACTIVE
 70
     0
 10
0.0
 20
0.0
 11
1.0
 21
1.0
 12
210.0
 22
148.5
 13
0.0
 23
0.0
 14
10.0
 24
10.0
 15
10.0
 25
10.0
 16
0.0
 26
0.0
 36
1.0
 17
0.0
 27
0.0
 37
0.0
 40
341.0
 41
1.24
 42
50.0
 43
0.0
 44
0.0
 50
0.0
 51
0.0
 71
     0
 72
   100
 73
     1
 74
     3
 75
     0
 76
     0
 77
     0
 78
     0
  0
ENDTAB
  0
TABLE
  2
LTYPE
  5
5
330
0
100
AcDbSymbolTable
 70
     1
  0
LTYPE
  5
14
330
5
100
AcDbSymbolTableRecord
100
AcDbLinetypeTableRecord
  2
BYBLOCK
 70
     0
  3

 72
    65
 73
     0
 40
0.0
  0
LTYPE
  5
15
330
5
100
AcDbSymbolTableRecord
100
AcDbLinetypeTableRecord
  2
BYLAYER
 70
     0
  3

 72
    65
 73
     0
 40
0.0
  0
LTYPE
  5
16
330
5
100
AcDbSymbolTableRecord
100
AcDbLinetypeTableRecord
  2
CONTINUOUS
 70
     0
  3
Solid line
 72
    65
 73
     0
 40
0.0
  0
ENDTAB
  0
TABLE
  2
LAYER
  5
2
100
AcDbSymbolTable
 70
2
  0
LAYER
  5
50
100
AcDbSymbolTableRecord
100
AcDbLayerTableRecord
  2
0
 70
0
  6
CONTINUOUS
  0
LAYER
  5
51
100
AcDbSymbolTableRecord
100
AcDbLayerTableRecord
  2
Layer_1
 70
0
  6
CONTINUOUS
  0
ENDTAB
  0
TABLE
  2
STYLE
  5
3
330
0
100
AcDbSymbolTable
 70
     1
  0
STYLE
  5
11
330
3
100
AcDbSymbolTableRecord
100
AcDbTextStyleTableRecord
  2
STANDARD
 70
     0
 40
0.0
 41
1.0
 50
0.0
 71
     0
 42
2.5
  3
txt
  4

  0
ENDTAB
  0
TABLE
  2
VIEW
  5
6
330
0
100
AcDbSymbolTable
 70
     0
  0
ENDTAB
  0
TABLE
  2
UCS
  5
7
330
0
100
AcDbSymbolTable
 70
     0
  0
ENDTAB
  0
TABLE
  2
APPID
  5
9
330
0
100
AcDbSymbolTable
 70
     2
  0
APPID
  5
12
330
9
100
AcDbSymbolTableRecord
100
AcDbRegAppTableRecord
  2
ACAD
 70
     0
  0
ENDTAB
  0
TABLE
  2
DIMSTYLE
  5
A
330
0
100
AcDbSymbolTable
 70
     1
  0
DIMSTYLE
105
27
330
A
100
AcDbSymbolTableRecord
100
AcDbDimStyleTableRecord
  2
ISO-25
 70
     0
  3

  4

  5

  6

  7

 40
1.0
 41
2.5
 42
0.625
 43
3.75
 44
1.25
 45
0.0
 46
0.0
 47
0.0
 48
0.0
140
2.5
141
2.5
142
0.0
143
0.03937007874016
144
1.0
145
0.0
146
1.0
147
0.625
 71
     0
 72
     0
 73
     0
 74
     0
 75
     0
 76
     0
 77
     1
 78
     8
170
     0
171
     3
172
     1
173
     0
174
     0
175
     0
176
     0
177
     0
178
     0
270
     2
271
     2
272
     2
273
     2
274
     3
340
11
275
     0
280
     0
281
     0
282
     0
283
     0
284
     8
285
     0
286
     0
287
     3
288
     0
  0
ENDTAB
  0
TABLE
  2
BLOCK_RECORD
  5
1
330
0
100
AcDbSymbolTable
 70
     1
  0
BLOCK_RECORD
  5
1F
330
1
100
AcDbSymbolTableRecord
100
AcDbBlockTableRecord
  2
*MODEL_SPACE
  0
BLOCK_RECORD
  5
1B
330
1
100
AcDbSymbolTableRecord
100
AcDbBlockTableRecord
  2
*PAPER_SPACE
  0
ENDTAB
  0
ENDSEC
  0
SECTION
  2
BLOCKS
  0
BLOCK
  5
20
330
1F
100
AcDbEntity
  8
0
100
AcDbBlockBegin
  2
*MODEL_SPACE
 70
     0
 10
0.0
 20
0.0
 30
0.0
  3
*MODEL_SPACE
  1

  0
ENDBLK
  5
21
330
1F
100
AcDbEntity
  8
0
100
AcDbBlockEnd
  0
BLOCK
  5
1C
330
1B
100
AcDbEntity
 67
     1
  8
0
100
AcDbBlockBegin
  2
*PAPER_SPACE
  1

  0
ENDBLK
  5
1D
330
1B
100
AcDbEntity
 67
     1
  8
0
100
AcDbBlockEnd
  0
ENDSEC
  0
SECTION
  2
ENTITIES
  0
LWPOLYLINE
  5
100
100
AcDbEntity
  8
Layer_1
 62
7
100
AcDbPolyline
 90
12
 70
1
 10
45.328541
 20
177.857150
 30
0.0
 10
42.428151
 20
177.857150
 30
0.0
 10
42.428151
 20
188.535855
 30
0.0
 10
31.544362
 20
188.535855
 30
0.0
 10
31.544362
 20
177.857150
 30
0.0
 10
28.643973
 20
177.857150
 30
0.0
 10
28.643973
 20
199.668671
 30
0.0
 10
31.544362
 20
199.668671
 30
0.0
 10
31.544362
 20
191.113994
 30
0.0
 10
42.428151
 20
191.113994
 30
0.0
 10
42.428151
 20
199.668671
 30
0.0
 10
45.328541
 20
199.668671
 30
0.0
  0
SPLINE
  5
101
100
AcDbEntity
  8
Layer_1
 62
7
100
AcDbSpline
 70
8
 71
3
 72
8
 73
4
 74
0
 40
0
 40
0
 40
0
 40
0
 40
1
 40
1
 40
1
 40
1
 10
52.623465
 20
185.752658
 30
0.0
 10
52.623465
 20
184.746794
 30
0.0
 10
52.774832
 20
183.867883
 30
0.0
 10
53.077567
 20
183.115928
 30
0.0
  0
SPLINE
  5
102
100
AcDbEntity
  8
Layer_1
 62
7
100
AcDbSpline
 70
8
 71
3
 72
8
 73
4
 74
0
 40
0
 40
0
 40
0
 40
0
 40
1
 40
1
 40
1
 40
1
 10
53.077567
 20
183.115928
 30
0.0
 10
53.380301
 20
182.373742
 30
0.0
 10
53.795340
 20
181.763395
 30
0.0
 10
54.322682
 20
181.284888
 30
0.0
  0
SPLINE
  5
103
100
AcDbEntity
  8
Layer_1
 62
7
100
AcDbSpline
 70
8
 71
3
 72
8
 73
4
 74
0
 40
0
 40
0
 40
0
 40
0
 40
1
 40
1
 40
1
 40
1
 10
54.322682
 20
181.284888
 30
0.0
 10
54.830495
 20
180.816132
 30
0.0
 10
55.431081
 20
180.464570
 30
0.0
 10
56.124439
 20
180.230202
 30
0.0
  0
SPLINE
  5
104
100
AcDbEntity
  8
Layer_1
 62
7
100
AcDbSpline
 70
8
 71
3
 72
8
 73
4
 74
0
 40
0
 40
0
 40
0
 40
0
 40
1
 40
1
 40
1
 40
1
 10
56.124439
 20
180.230202
 30
0.0
 10
56.827566
 20
179.995814
 30
0.0
 10
57.599050
 20
179.878620
 30
0.0
 10
58.438894
 20
179.878620
 30
0.0
  0
SPLINE
  5
105
100
AcDbEntity
  8
Layer_1
 62
7
100
AcDbSpline
 70
8
 71
3
 72
8
 73
4
 74
0
 40
0
 40
0
 40
0
 40
0
 40
1
 40
1
 40
1
 40
1
 10
58.438894
 20
179.878620
 30
0.0
 10
59.552174
 20
179.878620
 30
0.0
 10
60.670338
 20
180.098353
 30
0.0
 10
61.793385
 20
180.537817
 30
0.0
  0
SPLINE
  5
106
100
AcDbEntity
  8
Layer_1
 62
7
100
AcDbSpline
 70
8
 71
3
 72
8
 73
4
 74
0
 40
0
 40
0
 40
0
 40
0
 40
1
 40
1
 40
1
 40
1
 10
61.793385
 20
180.537817
 30
0.0
 10
62.926198
 20
180.987033
 30
0.0
 10
63.731862
 20
181.426488
 30
0.0
 10
64.210377
 20
181.856183
 30
0.0
  0
LWPOLYLINE
  5
107
100
AcDbEntity
  8
Layer_1
 62
7
100
AcDbPolyline
 90
2
 70
0
 10
64.679128
 20
185.752658
 30
0.0
 10
52.623465
 20
185.752658
 30
0.0
  0
SPLINE
  5
108
100
AcDbEntity
  8
Layer_1
 62
7
100
AcDbSpline
 70
8
 71
3
 72
8
 73
4
 74
0
 40
0
 40
0
 40
0
 40
0
 40
1
 40
1
 40
1
 40
1
 10
64.356871
 20
178.853244
 30
0.0
 10
63.429137
 20
178.462611
 30
0.0
 10
62.481871
 20
178.135465
 30
0.0
 10
61.515074
 20
177.871805
 30
0.0
  0
SPLINE
  5
109
100
AcDbEntity
  8
Layer_1
 62
7
100
AcDbSpline
 70
8
 71
3
 72
8
 73
4
 74
0
 40
0
 40
0
 40
0
 40
0
 40
1
 40
1
 40
1
 40
1
 10
61.515074
 20
177.871805
 30
0.0
 10
60.548276
 20
177.608126
 30
0.0
 10
59.532651
 20
177.476287
 30
0.0
 10
58.468198
 20
177.476287
 30
0.0
  0
SPLINE
  5
10a
100
AcDbEntity
  8
Layer_1
 62
7
100
AcDbSpline
 70
8
 71
3
 72
8
 73
4
 74
0
 40
0
 40
0
 40
0
 40
0
 40
1
 40
1
 40
1
 40
1
 10
58.468198
 20
177.476287
 30
0.0
 10
55.753356
 20
177.476287
 30
0.0
 10
53.634215
 20
178.208712
 30
0.0
 10
52.110777
 20
179.673562
 30
0.0
  0
SPLINE
  5
10b
100
AcDbEntity
  8
Layer_1
 62
7
100
AcDbSpline
 70
8
 71
3
 72
8
 73
4
 74
0
 40
0
 40
0
 40
0
 40
0
 40
1
 40
1
 40
1
 40
1
 10
52.110777
 20
179.673562
 30
0.0
 10
50.587340
 20
181.148164
 30
0.0
 10
49.825621
 20
183.238006
 30
0.0
 10
49.825621
 20
185.943090
 30
0.0
  0
SPLINE
  5
10c
100
AcDbEntity
  8
Layer_1
 62
7
100
AcDbSpline
 70
8
 71
3
 72
8
 73
4
 74
0
 40
0
 40
0
 40
0
 40
0
 40
1
 40
1
 40
1
 40
1
 10
49.825621
 20
185.943090
 30
0.0
 10
49.825621
 20
188.618863
 30
0.0
 10
50.553161
 20
190.742882
 30
0.0
 10
52.008239
 20
192.315146
 30
0.0
  0
SPLINE
  5
10d
100
AcDbEntity
  8
Layer_1
 62
7
100
AcDbSpline
 70
8
 71
3
 72
8
 73
4
 74
0
 40
0
 40
0
 40
0
 40
0
 40
1
 40
1
 40
1
 40
1
 10
52.008239
 20
192.315146
 30
0.0
 10
53.473082
 20
193.887411
 30
0.0
 10
55.396910
 20
194.673543
 30
0.0
 10
57.779722
 20
194.673543
 30
0.0
  0
SPLINE
  5
10e
100
AcDbEntity
  8
Layer_1
 62
7
100
AcDbSpline
 70
8
 71
3
 72
8
 73
4
 74
0
 40
0
 40
0
 40
0
 40
0
 40
1
 40
1
 40
1
 40
1
 10
57.779722
 20
194.673543
 30
0.0
 10
59.986753
 20
194.673543
 30
0.0
 10
61.685972
 20
194.029011
 30
0.0
 10
62.877379
 20
192.739946
 30
0.0
  0
SPLINE
  5
10f
100
AcDbEntity
  8
Layer_1
 62
7
100
AcDbSpline
 70
8
 71
3
 72
8
 73
4
 74
0
 40
0
 40
0
 40
0
 40
0
 40
1
 40
1
 40
1
 40
1
 10
62.877379
 20
192.739946
 30
0.0
 10
64.078551
 20
191.450901
 30
0.0
 10
64.679136
 20
189.619852
 30
0.0
 10
64.679136
 20
187.246800
 30
0.0
  0
LWPOLYLINE
  5
110
100
AcDbEntity
  8
Layer_1
 62
7
100
AcDbPolyline
 90
3
 70
0
 10
64.210377
 20
181.856183
 30
0.0
 10
64.356871
 20
181.856183
 30
0.0
 10
64.356871
 20
178.853244
 30
0.0
  0
SPLINE
  5
111
100
AcDbEntity
  8
Layer_1
 62
7
100
AcDbSpline
 70
8
 71
3
 72
8
 73
4
 74
0
 40
0
 40
0
 40
0
 40
0
 40
1
 40
1
 40
1
 40
1
 10
61.998463
 20
187.862031
 30
0.0
 10
61.988636
 20
189.307342
 30
0.0
 10
61.622426
 20
190.425506
 30
0.0
 10
60.899831
 20
191.216523
 30
0.0
  0
SPLINE
  5
112
100
AcDbEntity
  8
Layer_1
 62
7
100
AcDbSpline
 70
8
 71
3
 72
8
 73
4
 74
0
 40
0
 40
0
 40
0
 40
0
 40
1
 40
1
 40
1
 40
1
 10
60.899831
 20
191.216523
 30
0.0
 10
60.186940
 20
192.007540
 30
0.0
 10
59.098073
 20
192.403049
 30
0.0
 10
57.633231
 20
192.403049
 30
0.0
  0
SPLINE
  5
113
100
AcDbEntity
  8
Layer_1
 62
7
100
AcDbSpline
 70
8
 71
3
 72
8
 73
4
 74
0
 40
0
 40
0
 40
0
 40
0
 40
1
 40
1
 40
1
 40
1
 10
57.633231
 20
192.403049
 30
0.0
 10
56.158621
 20
192.403049
 30
0.0
 10
54.981864
 20
191.968479
 30
0.0
 10
54.102957
 20
191.099339
 30
0.0
  0
SPLINE
  5
114
100
AcDbEntity
  8
Layer_1
 62
7
100
AcDbSpline
 70
8
 71
3
 72
8
 73
4
 74
0
 40
0
 40
0
 40
0
 40
0
 40
1
 40
1
 40
1
 40
1
 10
54.102957
 20
191.099339
 30
0.0
 10
53.233815
 20
190.230198
 30
0.0
 10
52.740651
 20
189.151096
 30
0.0
 10
52.623465
 20
187.862031
 30
0.0
  0
LWPOLYLINE
  5
115
100
AcDbEntity
  8
Layer_1
 62
7
100
AcDbPolyline
 90
2
 70
0
 10
64.679136
 20
187.246800
 30
0.0
 10
64.679128
 20
185.752658
 30
0.0
  0
LWPOLYLINE
  5
116
100
AcDbEntity
  8
Layer_1
 62
7
100
AcDbPolyline
 90
2
 70
0
 10
52.623465
 20
187.862031
 30
0.0
 10
61.998463
 20
187.862031
 30
0.0
  0
LWPOLYLINE
  5
117
100
AcDbEntity
  8
Layer_1
 62
7
100
AcDbPolyline
 90
4
 70
1
 10
71.637137
 20
177.857150
 30
0.0
 10
68.883231
 20
177.857150
 30
0.0
 10
68.883231
 20
200.650110
 30
0.0
 10
71.637137
 20
200.650110
 30
0.0
  0
SPLINE
  5
118
100
AcDbEntity
  8
Layer_1
 62
7
100
AcDbSpline
 70
8
 71
3
 72
8
 73
4
 74
0
 40
0
 40
0
 40
0
 40
0
 40
1
 40
1
 40
1
 40
1
 10
99.322682
 20
186.030964
 30
0.0
 10
99.322682
 20
183.364961
 30
0.0
 10
98.639088
 20
181.260472
 30
0.0
 10
97.271901
 20
179.717499
 30
0.0
  0
SPLINE
  5
119
100
AcDbEntity
  8
Layer_1
 62
7
100
AcDbSpline
 70
8
 71
3
 72
8
 73
4
 74
0
 40
0
 40
0
 40
0
 40
0
 40
1
 40
1
 40
1
 40
1
 10
97.271901
 20
179.717499
 30
0.0
 10
95.904713
 20
178.174526
 30
0.0
 10
94.073659
 20
177.403039
 30
0.0
 10
91.778737
 20
177.403039
 30
0.0
  0
SPLINE
  5
11a
100
AcDbEntity
  8
Layer_1
 62
7
100
AcDbSpline
 70
8
 71
3
 72
8
 73
4
 74
0
 40
0
 40
0
 40
0
 40
0
 40
1
 40
1
 40
1
 40
1
 10
91.778737
 20
177.403039
 30
0.0
 10
89.464285
 20
177.403039
 30
0.0
 10
87.623465
 20
178.174526
 30
0.0
 10
86.256278
 20
179.717499
 30
0.0
  0
SPLINE
  5
11b
100
AcDbEntity
  8
Layer_1
 62
7
100
AcDbSpline
 70
8
 71
3
 72
8
 73
4
 74
0
 40
0
 40
0
 40
0
 40
0
 40
1
 40
1
 40
1
 40
1
 10
86.256278
 20
179.717499
 30
0.0
 10
84.898855
 20
181.260472
 30
0.0
 10
84.220143
 20
183.364961
 30
0.0
 10
84.220143
 20
186.030964
 30
0.0
  0
SPLINE
  5
11c
100
AcDbEntity
  8
Layer_1
 62
7
100
AcDbSpline
 70
8
 71
3
 72
8
 73
4
 74
0
 40
0
 40
0
 40
0
 40
0
 40
1
 40
1
 40
1
 40
1
 10
84.220143
 20
186.030964
 30
0.0
 10
84.220143
 20
188.696986
 30
0.0
 10
84.898855
 20
190.801483
 30
0.0
 10
86.256278
 20
192.344457
 30
0.0
  0
SPLINE
  5
11d
100
AcDbEntity
  8
Layer_1
 62
7
100
AcDbSpline
 70
8
 71
3
 72
8
 73
4
 74
0
 40
0
 40
0
 40
0
 40
0
 40
1
 40
1
 40
1
 40
1
 10
86.256278
 20
192.344457
 30
0.0
 10
87.623465
 20
193.897181
 30
0.0
 10
89.464285
 20
194.673543
 30
0.0
 10
91.778737
 20
194.673543
 30
0.0
  0
SPLINE
  5
11e
100
AcDbEntity
  8
Layer_1
 62
7
100
AcDbSpline
 70
8
 71
3
 72
8
 73
4
 74
0
 40
0
 40
0
 40
0
 40
0
 40
1
 40
1
 40
1
 40
1
 10
91.778737
 20
194.673543
 30
0.0
 10
94.073659
 20
194.673543
 30
0.0
 10
95.904713
 20
193.897181
 30
0.0
 10
97.271901
 20
192.344457
 30
0.0
  0
SPLINE
  5
11f
100
AcDbEntity
  8
Layer_1
 62
7
100
AcDbSpline
 70
8
 71
3
 72
8
 73
4
 74
0
 40
0
 40
0
 40
0
 40
0
 40
1
 40
1
 40
1
 40
1
 10
97.271901
 20
192.344457
 30
0.0
 10
98.639088
 20
190.801483
 30
0.0
 10
99.322682
 20
188.696986
 30
0.0
 10
99.322682
 20
186.030964
 30
0.0
  0
LWPOLYLINE
  5
120
100
AcDbEntity
  8
Layer_1
 62
7
100
AcDbPolyline
 90
4
 70
1
 10
79.898856
 20
177.857150
 30
0.0
 10
77.144950
 20
177.857150
 30
0.0
 10
77.144950
 20
200.650110
 30
0.0
 10
79.898856
 20
200.650110
 30
0.0
  0
SPLINE
  5
121
100
AcDbEntity
  8
Layer_1
 62
7
100
AcDbSpline
 70
8
 71
3
 72
8
 73
4
 74
0
 40
0
 40
0
 40
0
 40
0
 40
1
 40
1
 40
1
 40
1
 10
96.480887
 20
186.030964
 30
0.0
 10
96.480887
 20
188.150107
 30
0.0
 10
96.065848
 20
189.722372
 30
0.0
 10
95.235769
 20
190.747757
 30
0.0
  0
SPLINE
  5
122
100
AcDbEntity
  8
Layer_1
 62
7
100
AcDbSpline
 70
8
 71
3
 72
8
 73
4
 74
0
 40
0
 40
0
 40
0
 40
0
 40
1
 40
1
 40
1
 40
1
 10
95.235769
 20
190.747757
 30
0.0
 10
94.405690
 20
191.782932
 30
0.0
 10
93.253346
 20
192.300520
 30
0.0
 10
91.778737
 20
192.300520
 30
0.0
  0
SPLINE
  5
123
100
AcDbEntity
  8
Layer_1
 62
7
100
AcDbSpline
 70
8
 71
3
 72
8
 73
4
 74
0
 40
0
 40
0
 40
0
 40
0
 40
1
 40
1
 40
1
 40
1
 10
91.778737
 20
192.300520
 30
0.0
 10
90.284597
 20
192.300520
 30
0.0
 10
89.122488
 20
191.782932
 30
0.0
 10
88.292409
 20
190.747757
 30
0.0
  0
SPLINE
  5
124
100
AcDbEntity
  8
Layer_1
 62
7
100
AcDbSpline
 70
8
 71
3
 72
8
 73
4
 74
0
 40
0
 40
0
 40
0
 40
0
 40
1
 40
1
 40
1
 40
1
 10
88.292409
 20
190.747757
 30
0.0
 10
87.472097
 20
189.722372
 30
0.0
 10
87.061941
 20
188.150107
 30
0.0
 10
87.061941
 20
186.030964
 30
0.0
  0
SPLINE
  5
125
100
AcDbEntity
  8
Layer_1
 62
7
100
AcDbSpline
 70
8
 71
3
 72
8
 73
4
 74
0
 40
0
 40
0
 40
0
 40
0
 40
1
 40
1
 40
1
 40
1
 10
87.061941
 20
186.030964
 30
0.0
 10
87.061941
 20
183.980192
 30
0.0
 10
87.476980
 20
182.422583
 30
0.0
 10
88.307059
 20
181.358135
 30
0.0
  0
SPLINE
  5
126
100
AcDbEntity
  8
Layer_1
 62
7
100
AcDbSpline
 70
8
 71
3
 72
8
 73
4
 74
0
 40
0
 40
0
 40
0
 40
0
 40
1
 40
1
 40
1
 40
1
 10
88.307059
 20
181.358135
 30
0.0
 10
89.137136
 20
180.303439
 30
0.0
 10
90.294362
 20
179.776091
 30
0.0
 10
91.778737
 20
179.776091
 30
0.0
  0
SPLINE
  5
127
100
AcDbEntity
  8
Layer_1
 62
7
100
AcDbSpline
 70
8
 71
3
 72
8
 73
4
 74
0
 40
0
 40
0
 40
0
 40
0
 40
1
 40
1
 40
1
 40
1
 10
91.778737
 20
179.776091
 30
0.0
 10
93.243582
 20
179.776091
 30
0.0
 10
94.391043
 20
180.298554
 30
0.0
 10
95.221120
 20
181.343480
 30
0.0
  0
SPLINE
  5
128
100
AcDbEntity
  8
Layer_1
 62
7
100
AcDbSpline
 70
8
 71
3
 72
8
 73
4
 74
0
 40
0
 40
0
 40
0
 40
0
 40
1
 40
1
 40
1
 40
1
 10
95.221120
 20
181.343480
 30
0.0
 10
96.060965
 20
182.398157
 30
0.0
 10
96.480887
 20
183.960652
 30
0.0
 10
96.480887
 20
186.030964
 30
0.0
  0
LWPOLYLINE
  5
129
100
AcDbEntity
  8
Layer_1
 62
7
100
AcDbPolyline
 90
1
 70
1
 10
99.322682
 20
186.030964
 30
0.0
  0
LWPOLYLINE
  5
12a
100
AcDbEntity
  8
Layer_1
 62
7
100
AcDbPolyline
 90
1
 70
1
 10
96.480887
 20
186.030964
 30
0.0
  0
SPLINE
  5
12b
100
AcDbEntity
  8
Layer_1
 62
7
100
AcDbSpline
 70
8
 71
3
 72
8
 73
4
 74
0
 40
0
 40
0
 40
0
 40
0
 40
1
 40
1
 40
1
 40
1
 10
156.275807
 20
186.030964
 30
0.0
 10
156.275807
 20
183.364961
 30
0.0
 10
155.592214
 20
181.260472
 30
0.0
 10
154.225026
 20
179.717499
 30
0.0
  0
SPLINE
  5
12c
100
AcDbEntity
  8
Layer_1
 62
7
100
AcDbSpline
 70
8
 71
3
 72
8
 73
4
 74
0
 40
0
 40
0
 40
0
 40
0
 40
1
 40
1
 40
1
 40
1
 10
154.225026
 20
179.717499
 30
0.0
 10
152.857839
 20
178.174526
 30
0.0
 10
151.026784
 20
177.403039
 30
0.0
 10
148.731863
 20
177.403039
 30
0.0
  0
SPLINE
  5
12d
100
AcDbEntity
  8
Layer_1
 62
7
100
AcDbSpline
 70
8
 71
3
 72
8
 73
4
 74
0
 40
0
 40
0
 40
0
 40
0
 40
1
 40
1
 40
1
 40
1
 10
148.731863
 20
177.403039
 30
0.0
 10
146.417410
 20
177.403039
 30
0.0
 10
144.576591
 20
178.174526
 30
0.0
 10
143.209403
 20
179.717499
 30
0.0
  0
SPLINE
  5
12e
100
AcDbEntity
  8
Layer_1
 62
7
100
AcDbSpline
 70
8
 71
3
 72
8
 73
4
 74
0
 40
0
 40
0
 40
0
 40
0
 40
1
 40
1
 40
1
 40
1
 10
143.209403
 20
179.717499
 30
0.0
 10
141.851980
 20
181.260472
 30
0.0
 10
141.173269
 20
183.364961
 30
0.0
 10
141.173269
 20
186.030964
 30
0.0
  0
SPLINE
  5
12f
100
AcDbEntity
  8
Layer_1
 62
7
100
AcDbSpline
 70
8
 71
3
 72
8
 73
4
 74
0
 40
0
 40
0
 40
0
 40
0
 40
1
 40
1
 40
1
 40
1
 10
141.173269
 20
186.030964
 30
0.0
 10
141.173269
 20
188.696986
 30
0.0
 10
141.851980
 20
190.801483
 30
0.0
 10
143.209403
 20
192.344457
 30
0.0
  0
SPLINE
  5
130
100
AcDbEntity
  8
Layer_1
 62
7
100
AcDbSpline
 70
8
 71
3
 72
8
 73
4
 74
0
 40
0
 40
0
 40
0
 40
0
 40
1
 40
1
 40
1
 40
1
 10
143.209403
 20
192.344457
 30
0.0
 10
144.576591
 20
193.897181
 30
0.0
 10
146.417410
 20
194.673543
 30
0.0
 10
148.731863
 20
194.673543
 30
0.0
  0
SPLINE
  5
131
100
AcDbEntity
  8
Layer_1
 62
7
100
AcDbSpline
 70
8
 71
3
 72
8
 73
4
 74
0
 40
0
 40
0
 40
0
 40
0
 40
1
 40
1
 40
1
 40
1
 10
148.731863
 20
194.673543
 30
0.0
 10
151.026784
 20
194.673543
 30
0.0
 10
152.857839
 20
193.897181
 30
0.0
 10
154.225026
 20
192.344457
 30
0.0
  0
SPLINE
  5
132
100
AcDbEntity
  8
Layer_1
 62
7
100
AcDbSpline
 70
8
 71
3
 72
8
 73
4
 74
0
 40
0
 40
0
 40
0
 40
0
 40
1
 40
1
 40
1
 40
1
 10
154.225026
 20
192.344457
 30
0.0
 10
155.592214
 20
190.801483
 30
0.0
 10
156.275807
 20
188.696986
 30
0.0
 10
156.275807
 20
186.030964
 30
0.0
  0
LWPOLYLINE
  5
133
100
AcDbEntity
  8
Layer_1
 62
7
100
AcDbPolyline
 90
13
 70
1
 10
139.752366
 20
199.668671
 30
0.0
 10
134.083420
 20
177.857150
 30
0.0
 10
130.816820
 20
177.857150
 30
0.0
 10
126.231860
 20
195.962627
 30
0.0
 10
121.749437
 20
177.857150
 30
0.0
 10
118.556079
 20
177.857150
 30
0.0
 10
112.784593
 20
199.668671
 30
0.0
 10
115.758227
 20
199.668671
 30
0.0
 10
120.343187
 20
181.533912
 30
0.0
 10
124.854905
 20
199.668671
 30
0.0
 10
127.799243
 20
199.668671
 30
0.0
 10
132.354907
 20
181.358135
 30
0.0
 10
136.910571
 20
199.668671
 30
0.0
  0
SPLINE
  5
134
100
AcDbEntity
  8
Layer_1
 62
7
100
AcDbSpline
 70
8
 71
3
 72
8
 73
4
 74
0
 40
0
 40
0
 40
0
 40
0
 40
1
 40
1
 40
1
 40
1
 10
153.434010
 20
186.030964
 30
0.0
 10
153.434010
 20
188.150107
 30
0.0
 10
153.018971
 20
189.722372
 30
0.0
 10
152.188894
 20
190.747757
 30
0.0
  0
SPLINE
  5
135
100
AcDbEntity
  8
Layer_1
 62
7
100
AcDbSpline
 70
8
 71
3
 72
8
 73
4
 74
0
 40
0
 40
0
 40
0
 40
0
 40
1
 40
1
 40
1
 40
1
 10
152.188894
 20
190.747757
 30
0.0
 10
151.358816
 20
191.782932
 30
0.0
 10
150.206472
 20
192.300520
 30
0.0
 10
148.731863
 20
192.300520
 30
0.0
  0
SPLINE
  5
136
100
AcDbEntity
  8
Layer_1
 62
7
100
AcDbSpline
 70
8
 71
3
 72
8
 73
4
 74
0
 40
0
 40
0
 40
0
 40
0
 40
1
 40
1
 40
1
 40
1
 10
148.731863
 20
192.300520
 30
0.0
 10
147.237723
 20
192.300520
 30
0.0
 10
146.075614
 20
191.782932
 30
0.0
 10
145.245535
 20
190.747757
 30
0.0
  0
SPLINE
  5
137
100
AcDbEntity
  8
Layer_1
 62
7
100
AcDbSpline
 70
8
 71
3
 72
8
 73
4
 74
0
 40
0
 40
0
 40
0
 40
0
 40
1
 40
1
 40
1
 40
1
 10
145.245535
 20
190.747757
 30
0.0
 10
144.425222
 20
189.722372
 30
0.0
 10
144.015066
 20
188.150107
 30
0.0
 10
144.015066
 20
186.030964
 30
0.0
  0
SPLINE
  5
138
100
AcDbEntity
  8
Layer_1
 62
7
100
AcDbSpline
 70
8
 71
3
 72
8
 73
4
 74
0
 40
0
 40
0
 40
0
 40
0
 40
1
 40
1
 40
1
 40
1
 10
144.015066
 20
186.030964
 30
0.0
 10
144.015066
 20
183.980192
 30
0.0
 10
144.430106
 20
182.422583
 30
0.0
 10
145.260184
 20
181.358135
 30
0.0
  0
SPLINE
  5
139
100
AcDbEntity
  8
Layer_1
 62
7
100
AcDbSpline
 70
8
 71
3
 72
8
 73
4
 74
0
 40
0
 40
0
 40
0
 40
0
 40
1
 40
1
 40
1
 40
1
 10
145.260184
 20
181.358135
 30
0.0
 10
146.090261
 20
180.303439
 30
0.0
 10
147.247487
 20
179.776091
 30
0.0
 10
148.731863
 20
179.776091
 30
0.0
  0
SPLINE
  5
13a
100
AcDbEntity
  8
Layer_1
 62
7
100
AcDbSpline
 70
8
 71
3
 72
8
 73
4
 74
0
 40
0
 40
0
 40
0
 40
0
 40
1
 40
1
 40
1
 40
1
 10
148.731863
 20
179.776091
 30
0.0
 10
150.196707
 20
179.776091
 30
0.0
 10
151.344168
 20
180.298554
 30
0.0
 10
152.174245
 20
181.343480
 30
0.0
  0
SPLINE
  5
13b
100
AcDbEntity
  8
Layer_1
 62
7
100
AcDbSpline
 70
8
 71
3
 72
8
 73
4
 74
0
 40
0
 40
0
 40
0
 40
0
 40
1
 40
1
 40
1
 40
1
 10
152.174245
 20
181.343480
 30
0.0
 10
153.014088
 20
182.398157
 30
0.0
 10
153.434010
 20
183.960652
 30
0.0
 10
153.434010
 20
186.030964
 30
0.0
  0
LWPOLYLINE
  5
13c
100
AcDbEntity
  8
Layer_1
 62
7
100
AcDbPolyline
 90
1
 70
1
 10
156.275807
 20
186.030964
 30
0.0
  0
LWPOLYLINE
  5
13d
100
AcDbEntity
  8
Layer_1
 62
7
100
AcDbPolyline
 90
1
 70
1
 10
153.434010
 20
186.030964
 30
0.0
  0
SPLINE
  5
13e
100
AcDbEntity
  8
Layer_1
 62
7
100
AcDbSpline
 70
8
 71
3
 72
8
 73
4
 74
0
 40
0
 40
0
 40
0
 40
0
 40
1
 40
1
 40
1
 40
1
 10
170.616614
 20
191.216523
 30
0.0
 10
170.206458
 20
191.314224
 30
0.0
 10
169.806067
 20
191.382633
 30
0.0
 10
169.415442
 20
191.421751
 30
0.0
  0
SPLINE
  5
13f
100
AcDbEntity
  8
Layer_1
 62
7
100
AcDbSpline
 70
8
 71
3
 72
8
 73
4
 74
0
 40
0
 40
0
 40
0
 40
0
 40
1
 40
1
 40
1
 40
1
 10
169.415442
 20
191.421751
 30
0.0
 10
169.034582
 20
191.470507
 30
0.0
 10
168.580481
 20
191.494885
 30
0.0
 10
168.053136
 20
191.494885
 30
0.0
  0
SPLINE
  5
140
100
AcDbEntity
  8
Layer_1
 62
7
100
AcDbSpline
 70
8
 71
3
 72
8
 73
4
 74
0
 40
0
 40
0
 40
0
 40
0
 40
1
 40
1
 40
1
 40
1
 10
168.053136
 20
191.494885
 30
0.0
 10
167.203527
 20
191.494885
 30
0.0
 10
166.383214
 20
191.304463
 30
0.0
 10
165.592199
 20
190.923619
 30
0.0
  0
SPLINE
  5
141
100
AcDbEntity
  8
Layer_1
 62
7
100
AcDbSpline
 70
8
 71
3
 72
8
 73
4
 74
0
 40
0
 40
0
 40
0
 40
0
 40
1
 40
1
 40
1
 40
1
 10
165.592199
 20
190.923619
 30
0.0
 10
164.801184
 20
190.552526
 30
0.0
 10
164.039465
 20
190.069124
 30
0.0
 10
163.307044
 20
189.473414
 30
0.0
  0
LWPOLYLINE
  5
142
100
AcDbEntity
  8
Layer_1
 62
7
100
AcDbPolyline
 90
2
 70
0
 10
170.763109
 20
191.216523
 30
0.0
 10
170.616614
 20
191.216523
 30
0.0
  0
SPLINE
  5
143
100
AcDbEntity
  8
Layer_1
 62
7
100
AcDbSpline
 70
8
 71
3
 72
8
 73
4
 74
0
 40
0
 40
0
 40
0
 40
0
 40
1
 40
1
 40
1
 40
1
 10
163.307055
 20
191.802529
 30
0.0
 10
164.400805
 20
192.681420
 30
0.0
 10
165.362719
 20
193.301537
 30
0.0
 10
166.192798
 20
193.662879
 30
0.0
  0
SPLINE
  5
144
100
AcDbEntity
  8
Layer_1
 62
7
100
AcDbSpline
 70
8
 71
3
 72
8
 73
4
 74
0
 40
0
 40
0
 40
0
 40
0
 40
1
 40
1
 40
1
 40
1
 10
166.192798
 20
193.662879
 30
0.0
 10
167.032641
 20
194.033972
 30
0.0
 10
167.887133
 20
194.219518
 30
0.0
 10
168.756273
 20
194.219518
 30
0.0
  0
SPLINE
  5
145
100
AcDbEntity
  8
Layer_1
 62
7
100
AcDbSpline
 70
8
 71
3
 72
8
 73
4
 74
0
 40
0
 40
0
 40
0
 40
0
 40
1
 40
1
 40
1
 40
1
 10
168.756273
 20
194.219518
 30
0.0
 10
169.234790
 20
194.219518
 30
0.0
 10
169.581470
 20
194.204872
 30
0.0
 10
169.796313
 20
194.175581
 30
0.0
  0
SPLINE
  5
146
100
AcDbEntity
  8
Layer_1
 62
7
100
AcDbSpline
 70
8
 71
3
 72
8
 73
4
 74
0
 40
0
 40
0
 40
0
 40
0
 40
1
 40
1
 40
1
 40
1
 10
169.796313
 20
194.175581
 30
0.0
 10
170.011157
 20
194.156117
 30
0.0
 10
170.333422
 20
194.112180
 30
0.0
 10
170.763109
 20
194.043770
 30
0.0
  0
LWPOLYLINE
  5
147
100
AcDbEntity
  8
Layer_1
 62
7
100
AcDbPolyline
 90
6
 70
0
 10
163.307044
 20
189.473414
 30
0.0
 10
163.307044
 20
177.857206
 30
0.0
 10
160.553137
 20
177.857206
 30
0.0
 10
160.553137
 20
194.219518
 30
0.0
 10
163.307055
 20
194.219518
 30
0.0
 10
163.307055
 20
191.802529
 30
0.0
  0
LWPOLYLINE
  5
148
100
AcDbEntity
  8
Layer_1
 62
7
100
AcDbPolyline
 90
2
 70
0
 10
170.763109
 20
194.043770
 30
0.0
 10
170.763109
 20
191.216523
 30
0.0
  0
LWPOLYLINE
  5
149
100
AcDbEntity
  8
Layer_1
 62
7
100
AcDbPolyline
 90
4
 70
1
 10
176.168384
 20
177.857150
 30
0.0
 10
173.414477
 20
177.857150
 30
0.0
 10
173.414477
 20
200.650110
 30
0.0
 10
176.168384
 20
200.650110
 30
0.0
  0
SPLINE
  5
14a
100
AcDbEntity
  8
Layer_1
 62
7
100
AcDbSpline
 70
8
 71
3
 72
8
 73
4
 74
0
 40
0
 40
0
 40
0
 40
0
 40
1
 40
1
 40
1
 40
1
 10
192.164477
 20
179.571005
 30
0.0
 10
191.373461
 20
178.887420
 30
0.0
 10
190.548266
 20
178.355197
 30
0.0
 10
189.688890
 20
177.974334
 30
0.0
  0
SPLINE
  5
14b
100
AcDbEntity
  8
Layer_1
 62
7
100
AcDbSpline
 70
8
 71
3
 72
8
 73
4
 74
0
 40
0
 40
0
 40
0
 40
0
 40
1
 40
1
 40
1
 40
1
 10
189.688890
 20
177.974334
 30
0.0
 10
188.829516
 20
177.593471
 30
0.0
 10
187.896899
 20
177.403039
 30
0.0
 10
186.891038
 20
177.403039
 30
0.0
  0
SPLINE
  5
14c
100
AcDbEntity
  8
Layer_1
 62
7
100
AcDbSpline
 70
8
 71
3
 72
8
 73
4
 74
0
 40
0
 40
0
 40
0
 40
0
 40
1
 40
1
 40
1
 40
1
 10
186.891038
 20
177.403039
 30
0.0
 10
184.937914
 20
177.403039
 30
0.0
 10
183.385180
 20
178.154995
 30
0.0
 10
182.232836
 20
179.658907
 30
0.0
  0
SPLINE
  5
14d
100
AcDbEntity
  8
Layer_1
 62
7
100
AcDbSpline
 70
8
 71
3
 72
8
 73
4
 74
0
 40
0
 40
0
 40
0
 40
0
 40
1
 40
1
 40
1
 40
1
 10
182.232836
 20
179.658907
 30
0.0
 10
181.090259
 20
181.162819
 30
0.0
 10
180.518970
 20
183.247776
 30
0.0
 10
180.518970
 20
185.913780
 30
0.0
  0
SPLINE
  5
14e
100
AcDbEntity
  8
Layer_1
 62
7
100
AcDbSpline
 70
8
 71
3
 72
8
 73
4
 74
0
 40
0
 40
0
 40
0
 40
0
 40
1
 40
1
 40
1
 40
1
 10
180.518970
 20
185.913780
 30
0.0
 10
180.518970
 20
187.300507
 30
0.0
 10
180.714282
 20
188.535865
 30
0.0
 10
181.104905
 20
189.619852
 30
0.0
  0
SPLINE
  5
14f
100
AcDbEntity
  8
Layer_1
 62
7
100
AcDbSpline
 70
8
 71
3
 72
8
 73
4
 74
0
 40
0
 40
0
 40
0
 40
0
 40
1
 40
1
 40
1
 40
1
 10
181.104905
 20
189.619852
 30
0.0
 10
181.505297
 20
190.703820
 30
0.0
 10
182.042407
 20
191.626668
 30
0.0
 10
182.716234
 20
192.388394
 30
0.0
  0
SPLINE
  5
150
100
AcDbEntity
  8
Layer_1
 62
7
100
AcDbSpline
 70
8
 71
3
 72
8
 73
4
 74
0
 40
0
 40
0
 40
0
 40
0
 40
1
 40
1
 40
1
 40
1
 10
182.716234
 20
192.388394
 30
0.0
 10
183.380297
 20
193.130580
 30
0.0
 10
184.151782
 20
193.696989
 30
0.0
 10
185.030688
 20
194.087622
 30
0.0
  0
SPLINE
  5
151
100
AcDbEntity
  8
Layer_1
 62
7
100
AcDbSpline
 70
8
 71
3
 72
8
 73
4
 74
0
 40
0
 40
0
 40
0
 40
0
 40
1
 40
1
 40
1
 40
1
 10
185.030688
 20
194.087622
 30
0.0
 10
185.919359
 20
194.478236
 30
0.0
 10
186.837328
 20
194.673543
 30
0.0
 10
187.784595
 20
194.673543
 30
0.0
  0
SPLINE
  5
152
100
AcDbEntity
  8
Layer_1
 62
7
100
AcDbSpline
 70
8
 71
3
 72
8
 73
4
 74
0
 40
0
 40
0
 40
0
 40
0
 40
1
 40
1
 40
1
 40
1
 10
187.784595
 20
194.673543
 30
0.0
 10
188.643969
 20
194.673543
 30
0.0
 10
189.405687
 20
194.580756
 30
0.0
 10
190.069750
 20
194.395181
 30
0.0
  0
SPLINE
  5
153
100
AcDbEntity
  8
Layer_1
 62
7
100
AcDbSpline
 70
8
 71
3
 72
8
 73
4
 74
0
 40
0
 40
0
 40
0
 40
0
 40
1
 40
1
 40
1
 40
1
 10
190.069750
 20
194.395181
 30
0.0
 10
190.733813
 20
194.219433
 30
0.0
 10
191.432055
 20
193.941109
 30
0.0
 10
192.164477
 20
193.560208
 30
0.0
  0
LWPOLYLINE
  5
154
100
AcDbEntity
  8
Layer_1
 62
7
100
AcDbPolyline
 90
3
 70
0
 10
194.918383
 20
177.857150
 30
0.0
 10
192.164477
 20
177.857150
 30
0.0
 10
192.164477
 20
179.571005
 30
0.0
  0
LWPOLYLINE
  5
155
100
AcDbEntity
  8
Layer_1
 62
7
100
AcDbPolyline
 90
4
 70
0
 10
192.164477
 20
193.560208
 30
0.0
 10
192.164477
 20
200.650054
 30
0.0
 10
194.918383
 20
200.650054
 30
0.0
 10
194.918383
 20
177.857150
 30
0.0
  0
SPLINE
  5
156
100
AcDbEntity
  8
Layer_1
 62
7
100
AcDbSpline
 70
8
 71
3
 72
8
 73
4
 74
0
 40
0
 40
0
 40
0
 40
0
 40
1
 40
1
 40
1
 40
1
 10
192.164477
 20
191.275115
 30
0.0
 10
191.422289
 20
191.607146
 30
0.0
 10
190.758226
 20
191.836639
 30
0.0
 10
190.172288
 20
191.963594
 30
0.0
  0
SPLINE
  5
157
100
AcDbEntity
  8
Layer_1
 62
7
100
AcDbSpline
 70
8
 71
3
 72
8
 73
4
 74
0
 40
0
 40
0
 40
0
 40
0
 40
1
 40
1
 40
1
 40
1
 10
190.172288
 20
191.963594
 30
0.0
 10
189.586351
 20
192.090586
 30
0.0
 10
188.946703
 20
192.154082
 30
0.0
 10
188.253343
 20
192.154082
 30
0.0
  0
SPLINE
  5
158
100
AcDbEntity
  8
Layer_1
 62
7
100
AcDbSpline
 70
8
 71
3
 72
8
 73
4
 74
0
 40
0
 40
0
 40
0
 40
0
 40
1
 40
1
 40
1
 40
1
 10
188.253343
 20
192.154082
 30
0.0
 10
186.710375
 20
192.154082
 30
0.0
 10
185.509204
 20
191.616973
 30
0.0
 10
184.649828
 20
190.542756
 30
0.0
  0
SPLINE
  5
159
100
AcDbEntity
  8
Layer_1
 62
7
100
AcDbSpline
 70
8
 71
3
 72
8
 73
4
 74
0
 40
0
 40
0
 40
0
 40
0
 40
1
 40
1
 40
1
 40
1
 10
184.649828
 20
190.542756
 30
0.0
 10
183.790452
 20
189.468539
 30
0.0
 10
183.360764
 20
187.945096
 30
0.0
 10
183.360764
 20
185.972428
 30
0.0
  0
SPLINE
  5
15a
100
AcDbEntity
  8
Layer_1
 62
7
100
AcDbSpline
 70
8
 71
3
 72
8
 73
4
 74
0
 40
0
 40
0
 40
0
 40
0
 40
1
 40
1
 40
1
 40
1
 10
183.360764
 20
185.972428
 30
0.0
 10
183.360764
 20
184.029071
 30
0.0
 10
183.692796
 20
182.549584
 30
0.0
 10
184.356859
 20
181.533969
 30
0.0
  0
SPLINE
  5
15b
100
AcDbEntity
  8
Layer_1
 62
7
100
AcDbSpline
 70
8
 71
3
 72
8
 73
4
 74
0
 40
0
 40
0
 40
0
 40
0
 40
1
 40
1
 40
1
 40
1
 10
184.356859
 20
181.533969
 30
0.0
 10
185.020922
 20
180.528104
 30
0.0
 10
186.085375
 20
180.025172
 30
0.0
 10
187.550218
 20
180.025172
 30
0.0
  0
SPLINE
  5
15c
100
AcDbEntity
  8
Layer_1
 62
7
100
AcDbSpline
 70
8
 71
3
 72
8
 73
4
 74
0
 40
0
 40
0
 40
0
 40
0
 40
1
 40
1
 40
1
 40
1
 10
187.550218
 20
180.025172
 30
0.0
 10
188.331469
 20
180.025172
 30
0.0
 10
189.122485
 20
180.196072
 30
0.0
 10
189.923267
 20
180.537874
 30
0.0
  0
SPLINE
  5
15d
100
AcDbEntity
  8
Layer_1
 62
7
100
AcDbSpline
 70
8
 71
3
 72
8
 73
4
 74
0
 40
0
 40
0
 40
0
 40
0
 40
1
 40
1
 40
1
 40
1
 10
189.923267
 20
180.537874
 30
0.0
 10
190.724047
 20
180.889427
 30
0.0
 10
191.471117
 20
181.338643
 30
0.0
 10
192.164477
 20
181.885521
 30
0.0
  0
LWPOLYLINE
  5
15e
100
AcDbEntity
  8
Layer_1
 62
7
100
AcDbPolyline
 90
2
 70
0
 10
192.164477
 20
181.885465
 30
0.0
 10
192.164477
 20
191.275115
 30
0.0
  0
LWPOLYLINE
  5
15f
100
AcDbEntity
  8
Layer_1
 62
7
100
AcDbPolyline
 90
1
 70
1
 10
192.164477
 20
181.885521
 30
0.0
  0
ENDSEC
  0
SECTION
  2
OBJECTS
  0
DICTIONARY
  5
C
330
0
100
AcDbDictionary
  3
ACAD_GROUP
350
D
  3
ACAD_MLINESTYLE
350
17
  0
DICTIONARY
  5
D
330
C
100
AcDbDictionary
  0
DICTIONARY
  5
1A
330
C
100
AcDbDictionary
  0
DICTIONARY
  5
17
330
C
100
AcDbDictionary
  3
STANDARD
350
18
  0
DICTIONARY
  5
19
330
C
100
AcDbDictionary
  0
ENDSEC
  0
EOF
